<svg id="Layer_1" data-name="Layer 1" xmlns="http://www.w3.org/2000/svg" viewBox="0 0 2000 2000"><defs><style>.cls-1{fill:#666;stroke:#000;stroke-miterlimit:10;}.cls-2{fill:#fff;}</style></defs><title>LogoYthYayat</title><polygon class="cls-1" points="975.22 1909.73 975.08 1909.87 975.08 1909.73 975.22 1909.73"/><path class="cls-2" d="M1254.57,311.82l0,0,0,0Z"/><polygon class="cls-2" points="751.57 957.6 608.31 957.6 285.75 635.04 608.97 311.82 752.21 311.82 429 635.04 751.57 957.6"/><polygon class="cls-2" points="608.85 957.6 608.58 957.87 608.31 957.6 608.85 957.6"/><rect class="cls-2" x="597.07" y="584.21" width="812.31" height="101.3" transform="translate(-155.08 895.33) rotate(-45)"/><polygon class="cls-2" points="1397.89 311.82 1397.86 311.85 1397.83 311.82 1397.89 311.82"/><polygon class="cls-2" points="608.85 957.6 608.58 957.87 608.31 957.6 608.85 957.6"/><polygon class="cls-2" points="751.57 957.6 752.11 957.6 751.84 957.87 751.57 957.6"/><polygon class="cls-2" points="1720.69 634.68 1562.01 793.37 1397.78 957.6 1241.09 1114.29 1199.41 1155.97 1199.41 1616.48 1098.22 1717.66 1098.11 1717.66 1098.11 1114.01 1199.41 1012.71 1254.52 957.6 1490.38 721.74 1577.44 634.68 1254.6 311.85 1254.64 311.82 1397.83 311.82 1720.69 634.68"/><polygon class="cls-2" points="1098.11 1616.37 1098.11 1717.66 906.54 1717.66 805.76 1616.88 805.76 1616.37 1098.11 1616.37"/><polygon class="cls-2" points="805.76 1616.37 805.76 1616.88 805.25 1616.37 805.76 1616.37"/><polygon class="cls-2" points="907.07 1717.66 907.07 1718.18 906.54 1717.66 907.07 1717.66"/></svg>